<?xml version="1.0" encoding="UTF-8"?>
<svg width="85px" height="105px" viewBox="0 0 85 105" version="1.1" xmlns="http://www.w3.org/2000/svg" xmlns:xlink="http://www.w3.org/1999/xlink">
    <title>Group</title>
    <g id="Page-1" stroke="none" stroke-width="1" fill="none" fill-rule="evenodd">
        <g id="Group" transform="translate(0.953593, 1.320000)" fill-rule="nonzero">
            <g id="p3-link" transform="translate(45.290840, -0.000000)" fill="#000000" stroke="#FEFEFE">
                <path d="M22.3455672,7.10542736e-15 C22.4455672,7.19 20.6555672,14.12 15.0555672,18.98 C10.7355672,22.71 5.55556721,23.39 0.0455672092,23.4 C-0.214432791,17.57 0.555567209,12 4.51556721,7.45 C9.11556721,2.18 15.5655672,0.32 22.3455672,7.10542736e-15 Z" id="p3"></path>
            </g>
            <g id="p4-link" transform="translate(25.516407, 4.901434)" fill="#000000" stroke="#FEFEFE">
                <path d="M4.27,0.138565881 C7.61,1.64856588 10.26,5.06856588 12.21,8.08856588 C15.25,13.1685659 17.55,19.0585659 17.84,25.0185659 C16.41,25.0985659 14.98,25.1385659 13.55,25.1485659 C12.4,21.4085659 11.42,17.2685659 9.49,13.8585659 C7.39,9.97856588 3.32,7.52856588 0,4.68856588 C0.95,3.29856588 2,-0.801434119 4.27,0.138565881 Z" id="p4"></path>
            </g>
            <g id="p5-link" transform="translate(0.000000, 28.153187)" fill="#000000" stroke="#FEFEFE">
                <path d="M79.5564075,12.9968134 C83.3664075,21.0268134 83.1464075,30.5468134 81.4764075,39.0768134 C79.4764075,48.6268134 75.6864075,58.3668134 69.4764075,65.9768134 C65.9964075,70.1868134 61.6464075,73.8668134 56.0264075,74.5468134 C51.4664075,75.1368134 46.5564075,72.3268134 42.0664075,71.9868134 C37.0964075,71.6868134 31.9764075,75.4468134 27.0364075,74.6868134 C20.7464075,73.7868134 15.8264075,69.3668134 12.0564075,64.5268134 C6.04640749,56.6468134 2.53640749,46.5768134 0.726407486,36.9168134 C-0.613592514,28.1868134 -0.393592514,19.2868134 3.91640749,11.3768134 C8.12640749,3.49681337 17.2164075,-1.18318663 26.0864075,0.356813369 C31.5564075,1.07681337 36.6364075,4.57681337 42.0264075,4.58681337 C47.4564075,4.05681337 52.1664075,0.746813369 57.6964075,0.176813369 C66.9364075,-1.11318663 75.7264075,4.80681337 79.5564075,12.9968134 Z M18.4064075,15.9268134 C20.3864075,14.4768134 22.9364075,13.8268134 24.8864075,12.3568134 C25.9764075,11.2568134 25.1964075,10.0668134 24.5964075,8.94681337 C21.7664075,7.43681337 18.6264075,9.07681337 16.2964075,10.7568134 C10.0064075,15.3468134 7.22640749,23.4768134 8.60640749,31.0368134 C9.58640749,33.0068134 13.3964075,32.8168134 13.6764075,30.2468134 C15.1664075,25.0268134 13.5464075,19.9468134 18.4064075,15.9268134 Z" id="p5"></path>
            </g>
            <g id="p6-link" transform="translate(8.260040, 36.504175)">
                <path d="M16.3363666,0.59582476 C16.9363666,1.71582476 17.7163666,2.90582476 16.6263666,4.00582476 C14.6763666,5.47582476 12.1263666,6.12582476 10.1463666,7.57582476 C5.2863666,11.5958248 6.9063666,16.6758248 5.4163666,21.8958248 C5.1363666,24.4658248 1.3263666,24.6558248 0.346366606,22.6858248 C-1.0336334,15.1258248 1.7463666,6.99582476 8.0363666,2.40582476 C10.3663666,0.72582476 13.5063666,-0.91417524 16.3363666,0.59582476 Z" id="p6"></path>
            </g>
        </g>
    </g>
</svg>