<?xml version="1.0" encoding="UTF-8"?>
<svg width="156px" height="156px" viewBox="0 0 156 156" version="1.1" xmlns="http://www.w3.org/2000/svg" xmlns:xlink="http://www.w3.org/1999/xlink">
    <title>Group 2</title>
    <defs>
        <rect id="path-1" x="0" y="0" width="156" height="156" rx="35"></rect>
    </defs>
    <g id="Page-1" stroke="none" stroke-width="1" fill="none" fill-rule="evenodd">
        <g id="Group-2">
            <mask id="mask-2" fill="white">
                <use xlink:href="#path-1"></use>
            </mask>
            <g id="Rectangle"></g>
            <g id="appleseed" mask="url(#mask-2)">
                <g transform="translate(1.000000, 1.000000)" id="Group">
                    <g>
                        <g id="p0-link" fill="#000000" fill-rule="nonzero" stroke="#FEFEFE">
                            <path d="M0,0 L24.74,0 C18.39,1.72 12.41,3.83 8.02,9.01 C3.58,13.95 1.22,19.9 0,26.37 L0,0 Z" id="p0"></path>
                        </g>
                        <g id="p1-link" fill="#000000" fill-rule="nonzero" stroke="#E24A3E">
                            <path d="M24.74,0 L133.33,0 C136.98,1.81 141.23,3.11 144.3,5.69 C146.63,7.62 149.08,9.64 150.89,12.08 C153.1,15.28 154.62,19.06 156,22.68 L156,132.73 C154.87,136.58 153.49,140.81 150.99,144.01 C148.97,146.29 146.49,148.21 144.13,150.14 C140.69,152.98 136.3,154.21 132.16,156 L24.58,156 C20.43,154.44 15.91,153.33 12.48,150.53 C8.7,147.49 5.29,144.3 3.25,139.82 C2.03,137.02 1.03,134.13 0,131.26 L0,26.37 C1.22,19.9 3.58,13.95 8.02,9.01 C12.41,3.83 18.39,1.72 24.74,0 Z M82.29,49.72 C87.8,49.71 92.98,49.03 97.3,45.3 C102.9,40.44 104.69,33.51 104.59,26.32 C97.81,26.64 91.36,28.5 86.76,33.77 C82.8,38.32 82.03,43.89 82.29,49.72 Z M62.47,35.91 C65.79,38.75 69.86,41.2 71.96,45.08 C73.89,48.49 74.87,52.63 76.02,56.37 C77.45,56.36 78.88,56.32 80.31,56.24 C80.02,50.28 77.72,44.39 74.68,39.31 C72.73,36.29 70.08,32.87 66.74,31.36 C64.47,30.42 63.42,34.52 62.47,35.91 Z M78.98,59.06 C73.59,59.05 68.51,55.55 63.04,54.83 C54.17,53.29 45.08,57.97 40.87,65.85 C36.56,73.76 36.34,82.66 37.68,91.39 C39.49,101.05 43,111.12 49.01,119 C52.78,123.84 57.7,128.26 63.99,129.16 C68.93,129.92 74.05,126.16 79.02,126.46 C83.51,126.8 88.42,129.61 92.98,129.02 C98.6,128.34 102.95,124.66 106.43,120.45 C112.64,112.84 116.43,103.1 118.43,93.55 C120.1,85.02 120.32,75.5 116.51,67.47 C112.68,59.28 103.89,53.36 94.65,54.65 C89.12,55.22 84.41,58.53 78.98,59.06 Z" id="p1"></path>
                        </g>
                        <g id="p2-link" transform="translate(133.330000, 0.000000)" fill="#000000" fill-rule="nonzero" stroke="#FEFEFE">
                            <path d="M-2.84217094e-14,0 L22.67,0 L22.67,22.68 C21.29,19.06 19.77,15.28 17.56,12.08 C15.75,9.64 13.3,7.62 10.97,5.69 C7.9,3.11 3.65,1.81 -2.84217094e-14,0 Z" id="p2"></path>
                        </g>
                        <g id="p3-link" transform="translate(82.244433, 26.320000)" fill="#000000" fill-rule="nonzero" stroke="#FEFEFE">
                            <path d="M22.3455672,7.10542736e-15 C22.4455672,7.19 20.6555672,14.12 15.0555672,18.98 C10.7355672,22.71 5.55556721,23.39 0.0455672092,23.4 C-0.214432791,17.57 0.555567209,12 4.51556721,7.45 C9.11556721,2.18 15.5655672,0.32 22.3455672,7.10542736e-15 Z" id="p3"></path>
                        </g>
                        <g id="p4-link" transform="translate(62.470000, 31.221434)" fill="#000000" fill-rule="nonzero" stroke="#FEFEFE">
                            <path d="M4.27,0.138565881 C7.61,1.64856588 10.26,5.06856588 12.21,8.08856588 C15.25,13.1685659 17.55,19.0585659 17.84,25.0185659 C16.41,25.0985659 14.98,25.1385659 13.55,25.1485659 C12.4,21.4085659 11.42,17.2685659 9.49,13.8585659 C7.39,9.97856588 3.32,7.52856588 0,4.68856588 C0.95,3.29856588 2,-0.801434119 4.27,0.138565881 Z" id="p4"></path>
                        </g>
                        <g id="p5-link" transform="translate(36.953593, 54.473187)" fill="#000000" fill-rule="nonzero" stroke="#FEFEFE">
                            <path d="M79.5564075,12.9968134 C83.3664075,21.0268134 83.1464075,30.5468134 81.4764075,39.0768134 C79.4764075,48.6268134 75.6864075,58.3668134 69.4764075,65.9768134 C65.9964075,70.1868134 61.6464075,73.8668134 56.0264075,74.5468134 C51.4664075,75.1368134 46.5564075,72.3268134 42.0664075,71.9868134 C37.0964075,71.6868134 31.9764075,75.4468134 27.0364075,74.6868134 C20.7464075,73.7868134 15.8264075,69.3668134 12.0564075,64.5268134 C6.04640749,56.6468134 2.53640749,46.5768134 0.726407486,36.9168134 C-0.613592514,28.1868134 -0.393592514,19.2868134 3.91640749,11.3768134 C8.12640749,3.49681337 17.2164075,-1.18318663 26.0864075,0.356813369 C31.5564075,1.07681337 36.6364075,4.57681337 42.0264075,4.58681337 C47.4564075,4.05681337 52.1664075,0.746813369 57.6964075,0.176813369 C66.9364075,-1.11318663 75.7264075,4.80681337 79.5564075,12.9968134 Z M18.4064075,15.9268134 C20.3864075,14.4768134 22.9364075,13.8268134 24.8864075,12.3568134 C25.9764075,11.2568134 25.1964075,10.0668134 24.5964075,8.94681337 C21.7664075,7.43681337 18.6264075,9.07681337 16.2964075,10.7568134 C10.0064075,15.3468134 7.22640749,23.4768134 8.60640749,31.0368134 C9.58640749,33.0068134 13.3964075,32.8168134 13.6764075,30.2468134 C15.1664075,25.0268134 13.5464075,19.9468134 18.4064075,15.9268134 Z" id="p5"></path>
                        </g>
                        <g id="p6-link" transform="translate(45.213633, 62.824175)" fill="#000000" fill-rule="nonzero" stroke="#E24A3E">
                            <path d="M16.3363666,0.59582476 C16.9363666,1.71582476 17.7163666,2.90582476 16.6263666,4.00582476 C14.6763666,5.47582476 12.1263666,6.12582476 10.1463666,7.57582476 C5.2863666,11.5958248 6.9063666,16.6758248 5.4163666,21.8958248 C5.1363666,24.4658248 1.3263666,24.6558248 0.346366606,22.6858248 C-1.0336334,15.1258248 1.7463666,6.99582476 8.0363666,2.40582476 C10.3663666,0.72582476 13.5063666,-0.91417524 16.3363666,0.59582476 Z" id="p6"></path>
                        </g>
                        <g id="p7-link" transform="translate(0.000000, 131.260000)" fill="#000000" fill-rule="nonzero" stroke="#FEFEFE">
                            <path d="M0,0 C1.03,2.87 2.03,5.76 3.25,8.56 C5.29,13.04 8.7,16.23 12.48,19.27 C15.91,22.07 20.43,23.18 24.58,24.74 L0,24.74 L0,0 Z" id="p7"></path>
                        </g>
                        <g id="p8-link" transform="translate(132.160000, 132.730000)" fill="#000000" fill-rule="nonzero" stroke="#FEFEFE">
                            <path d="M23.84,-2.84217094e-14 L23.84,23.27 L2.84217094e-14,23.27 C4.14,21.48 8.53,20.25 11.97,17.41 C14.33,15.48 16.81,13.56 18.83,11.28 C21.33,8.08 22.71,3.85 23.84,-2.84217094e-14 Z" id="p8"></path>
                        </g>
                    </g>
                    <g>
                        <g id="p0-link" fill="#FEFEFE" fill-rule="nonzero">
                            <path d="M0,0 L24.74,0 C18.39,1.72 12.41,3.83 8.02,9.01 C3.58,13.95 1.22,19.9 0,26.37 L0,0 Z" id="p0"></path>
                        </g>
                        <g id="p1-link" fill="#E24A3E" fill-rule="nonzero">
                            <path d="M24.74,0 L133.33,0 C136.98,1.81 141.23,3.11 144.3,5.69 C146.63,7.62 149.08,9.64 150.89,12.08 C153.1,15.28 154.62,19.06 156,22.68 L156,132.73 C154.87,136.58 153.49,140.81 150.99,144.01 C148.97,146.29 146.49,148.21 144.13,150.14 C140.69,152.98 136.3,154.21 132.16,156 L24.58,156 C20.43,154.44 15.91,153.33 12.48,150.53 C8.7,147.49 5.29,144.3 3.25,139.82 C2.03,137.02 1.03,134.13 0,131.26 L0,26.37 C1.22,19.9 3.58,13.95 8.02,9.01 C12.41,3.83 18.39,1.72 24.74,0 Z M82.29,49.72 C87.8,49.71 92.98,49.03 97.3,45.3 C102.9,40.44 104.69,33.51 104.59,26.32 C97.81,26.64 91.36,28.5 86.76,33.77 C82.8,38.32 82.03,43.89 82.29,49.72 Z M62.47,35.91 C65.79,38.75 69.86,41.2 71.96,45.08 C73.89,48.49 74.87,52.63 76.02,56.37 C77.45,56.36 78.88,56.32 80.31,56.24 C80.02,50.28 77.72,44.39 74.68,39.31 C72.73,36.29 70.08,32.87 66.74,31.36 C64.47,30.42 63.42,34.52 62.47,35.91 Z M78.98,59.06 C73.59,59.05 68.51,55.55 63.04,54.83 C54.17,53.29 45.08,57.97 40.87,65.85 C36.56,73.76 36.34,82.66 37.68,91.39 C39.49,101.05 43,111.12 49.01,119 C52.78,123.84 57.7,128.26 63.99,129.16 C68.93,129.92 74.05,126.16 79.02,126.46 C83.51,126.8 88.42,129.61 92.98,129.02 C98.6,128.34 102.95,124.66 106.43,120.45 C112.64,112.84 116.43,103.1 118.43,93.55 C120.1,85.02 120.32,75.5 116.51,67.47 C112.68,59.28 103.89,53.36 94.65,54.65 C89.12,55.22 84.41,58.53 78.98,59.06 Z" id="p1"></path>
                        </g>
                        <g id="p2-link" transform="translate(133.330000, 0.000000)" fill="#FEFEFE" fill-rule="nonzero">
                            <path d="M-2.84217094e-14,0 L22.67,0 L22.67,22.68 C21.29,19.06 19.77,15.28 17.56,12.08 C15.75,9.64 13.3,7.62 10.97,5.69 C7.9,3.11 3.65,1.81 -2.84217094e-14,0 Z" id="p2"></path>
                        </g>
                        <g id="p3-link" transform="translate(82.244433, 26.320000)" fill="#FEFEFE" fill-rule="nonzero">
                            <path d="M22.3455672,7.10542736e-15 C22.4455672,7.19 20.6555672,14.12 15.0555672,18.98 C10.7355672,22.71 5.55556721,23.39 0.0455672092,23.4 C-0.214432791,17.57 0.555567209,12 4.51556721,7.45 C9.11556721,2.18 15.5655672,0.32 22.3455672,7.10542736e-15 Z" id="p3"></path>
                        </g>
                        <g id="p4-link" transform="translate(62.470000, 31.221434)" fill="#FEFEFE" fill-rule="nonzero">
                            <path d="M4.27,0.138565881 C7.61,1.64856588 10.26,5.06856588 12.21,8.08856588 C15.25,13.1685659 17.55,19.0585659 17.84,25.0185659 C16.41,25.0985659 14.98,25.1385659 13.55,25.1485659 C12.4,21.4085659 11.42,17.2685659 9.49,13.8585659 C7.39,9.97856588 3.32,7.52856588 0,4.68856588 C0.95,3.29856588 2,-0.801434119 4.27,0.138565881 Z" id="p4"></path>
                        </g>
                        <g id="p5-link" transform="translate(36.953593, 54.473187)" fill="#FEFEFE" fill-rule="nonzero">
                            <path d="M79.5564075,12.9968134 C83.3664075,21.0268134 83.1464075,30.5468134 81.4764075,39.0768134 C79.4764075,48.6268134 75.6864075,58.3668134 69.4764075,65.9768134 C65.9964075,70.1868134 61.6464075,73.8668134 56.0264075,74.5468134 C51.4664075,75.1368134 46.5564075,72.3268134 42.0664075,71.9868134 C37.0964075,71.6868134 31.9764075,75.4468134 27.0364075,74.6868134 C20.7464075,73.7868134 15.8264075,69.3668134 12.0564075,64.5268134 C6.04640749,56.6468134 2.53640749,46.5768134 0.726407486,36.9168134 C-0.613592514,28.1868134 -0.393592514,19.2868134 3.91640749,11.3768134 C8.12640749,3.49681337 17.2164075,-1.18318663 26.0864075,0.356813369 C31.5564075,1.07681337 36.6364075,4.57681337 42.0264075,4.58681337 C47.4564075,4.05681337 52.1664075,0.746813369 57.6964075,0.176813369 C66.9364075,-1.11318663 75.7264075,4.80681337 79.5564075,12.9968134 Z M18.4064075,15.9268134 C20.3864075,14.4768134 22.9364075,13.8268134 24.8864075,12.3568134 C25.9764075,11.2568134 25.1964075,10.0668134 24.5964075,8.94681337 C21.7664075,7.43681337 18.6264075,9.07681337 16.2964075,10.7568134 C10.0064075,15.3468134 7.22640749,23.4768134 8.60640749,31.0368134 C9.58640749,33.0068134 13.3964075,32.8168134 13.6764075,30.2468134 C15.1664075,25.0268134 13.5464075,19.9468134 18.4064075,15.9268134 Z" id="p5"></path>
                        </g>
                        <g id="p6-link" transform="translate(45.213633, 62.824175)" fill="#E24A3E" fill-rule="nonzero">
                            <path d="M16.3363666,0.59582476 C16.9363666,1.71582476 17.7163666,2.90582476 16.6263666,4.00582476 C14.6763666,5.47582476 12.1263666,6.12582476 10.1463666,7.57582476 C5.2863666,11.5958248 6.9063666,16.6758248 5.4163666,21.8958248 C5.1363666,24.4658248 1.3263666,24.6558248 0.346366606,22.6858248 C-1.0336334,15.1258248 1.7463666,6.99582476 8.0363666,2.40582476 C10.3663666,0.72582476 13.5063666,-0.91417524 16.3363666,0.59582476 Z" id="p6"></path>
                        </g>
                        <g id="p7-link" transform="translate(0.000000, 131.260000)" fill="#FEFEFE" fill-rule="nonzero">
                            <path d="M0,0 C1.03,2.87 2.03,5.76 3.25,8.56 C5.29,13.04 8.7,16.23 12.48,19.27 C15.91,22.07 20.43,23.18 24.58,24.74 L0,24.74 L0,0 Z" id="p7"></path>
                        </g>
                        <g id="p8-link" transform="translate(132.160000, 132.730000)" fill="#FEFEFE" fill-rule="nonzero">
                            <path d="M23.84,-2.84217094e-14 L23.84,23.27 L2.84217094e-14,23.27 C4.14,21.48 8.53,20.25 11.97,17.41 C14.33,15.48 16.81,13.56 18.83,11.28 C21.33,8.08 22.71,3.85 23.84,-2.84217094e-14 Z" id="p8"></path>
                        </g>
                    </g>
                </g>
            </g>
        </g>
    </g>
</svg>